<?xml version="1.0" standalone="no"?>
<!DOCTYPE svg PUBLIC "-//W3C//DTD SVG 20010904//EN"
 "http://www.w3.org/TR/2001/REC-SVG-20010904/DTD/svg10.dtd">
<svg version="1.0" xmlns="http://www.w3.org/2000/svg"
 width="1024.000000pt" height="1024.000000pt" viewBox="0 0 1024.000000 1024.000000"
 preserveAspectRatio="xMidYMid meet">
<metadata>
Created by potrace 1.14, written by Peter Selinger 2001-2017
</metadata>
<g transform="translate(0.000000,1024.000000) scale(0.100000,-0.100000)"
fill="#000000" stroke="none">
<path d="M0 5120 l0 -5120 5120 0 5120 0 0 5120 0 5120 -5120 0 -5120 0 0
-5120z m3930 1988 l0 -443 -415 0 c-318 0 -417 -3 -427 -12 -13 -14 -32 -18
-24 -5 4 8 -125 5 -181 -4 -29 -4 -32 -8 -36 -47 -2 -23 -4 182 -5 456 l-2
497 545 0 545 0 0 -442z m1020 347 l0 -95 -250 0 c-160 0 -250 -4 -250 -10 0
-6 34 -11 78 -12 l77 -2 -76 -3 c-71 -4 -76 -5 -72 -23 3 -11 10 -17 15 -14 6
4 8 -3 4 -17 -3 -13 -3 -18 0 -11 7 14 44 16 44 2 0 -5 9 -10 20 -10 11 0 20
-4 20 -10 0 -5 -22 -10 -49 -10 -43 0 -50 3 -54 23 -3 16 -5 13 -6 -10 -1 -25
2 -31 14 -27 16 6 19 -4 9 -30 -3 -9 -10 -13 -15 -10 -5 3 -6 -2 -3 -10 5 -13
-5 -14 -65 -9 -63 5 -71 4 -71 -12 0 -13 -5 -16 -26 -11 l-25 7 0 -98 c1 -54
-2 -126 -5 -161 l-6 -63 -88 -44 c-48 -24 -90 -41 -94 -38 -3 4 -6 186 -6 405
l0 398 440 0 440 0 0 -95z m1148 -2 l3 -93 -411 0 -410 0 0 -345 0 -345 -94 0
-95 0 -3 428 c-2 235 -1 433 1 440 2 10 108 12 505 10 l501 -3 3 -92z m1032
33 c0 -35 -3 -78 -6 -95 l-6 -31 -347 -2 -346 -3 -2 -205 c-1 -113 -2 -233 -3
-266 l0 -62 -61 -11 c-34 -6 -77 -19 -95 -30 l-34 -20 0 394 0 395 450 0 450
0 0 -64z m-2610 -266 c0 -5 -7 -10 -15 -10 -8 0 -15 5 -15 10 0 6 7 10 15 10
8 0 15 -4 15 -10z m-88 -95 c-2 -14 -11 -25 -19 -25 -9 0 -13 6 -9 15 3 8 1
15 -4 15 -6 0 -10 5 -10 10 0 6 11 10 24 10 19 0 22 -4 18 -25z m-145 -52 c-2
-16 -4 -5 -4 22 0 28 2 40 4 28 2 -13 2 -35 0 -50z m20 15 c-3 -8 -6 -5 -6 6
-1 11 2 17 5 13 3 -3 4 -12 1 -19z m1791 -365 l3 -63 -125 0 c-68 0 -131 3
-140 6 -12 5 -16 20 -16 58 0 29 3 56 7 60 4 3 66 5 137 4 l131 -3 3 -62z
m-2711 -193 c294 0 539 -3 544 -6 5 -3 9 -126 9 -275 l0 -269 -180 0 -180 0 0
-55 0 -55 -255 0 -255 0 0 -53 c0 -50 -3 -56 -37 -83 -20 -16 -62 -53 -93 -81
-32 -30 -66 -53 -78 -53 l-22 0 1 478 c0 262 3 472 5 465 4 -9 135 -12 541
-13z m-340 13 c-20 -2 -52 -2 -70 0 -17 2 0 4 38 4 39 0 53 -2 32 -4z m2233
-113 l0 -90 -505 0 -505 0 -2 -112 c-5 -276 -5 -315 -1 -351 5 -36 7 -38 31
-32 14 3 241 3 504 -1 l478 -7 0 -69 0 -68 -171 0 -172 0 7 -957 c4 -648 3
-953 -4 -943 -5 8 -10 22 -10 31 0 12 -7 15 -24 12 -18 -4 -31 3 -52 26 -15
17 -35 33 -45 36 -17 6 -18 14 -13 76 6 63 5 71 -15 88 -22 19 -28 41 -11 41
6 0 10 11 10 25 0 29 -6 31 -25 11 -10 -9 -13 -29 -10 -58 2 -23 1 -49 -3 -55
-6 -9 -68 -13 -232 -15 l-225 -3 -3 -57 c-3 -50 -7 -59 -34 -80 -61 -47 -79
-67 -82 -93 -2 -15 -9 -31 -17 -35 -8 -6 16 -10 66 -13 66 -2 59 -3 -37 -5
l-118 -2 0 803 c0 441 4 807 8 813 13 20 157 113 185 119 26 7 27 10 27 71 l0
64 -104 0 -104 0 -3 44 c-2 24 -3 231 -1 460 l2 416 605 0 605 0 0 -90z m1840
-7 l0 -98 -187 3 c-104 2 -220 1 -258 -3 l-71 -6 0 -74 c1 -40 -2 -76 -4 -79
-3 -2 -23 -7 -45 -10 -22 -3 -57 -8 -77 -11 -28 -5 -38 -3 -39 7 -1 7 -5 2 -9
-12 -4 -14 -8 -68 -9 -120 -1 -52 -4 -132 -8 -178 l-6 -83 -70 -52 c-38 -29
-78 -58 -88 -66 -18 -13 -19 0 -19 433 l0 446 445 0 445 0 0 -97z m-1840
-1266 l0 -423 -27 -21 c-16 -11 -59 -49 -98 -84 l-70 -63 -3 494 c-1 272 0
501 3 508 3 8 33 12 100 12 l95 0 0 -423z m610 -1246 l0 -508 -42 -7 c-23 -4
-157 -6 -297 -6 -141 1 -487 1 -768 0 l-513 0 0 -56 c0 -30 -4 -64 -10 -74
-12 -23 -177 -170 -190 -170 -6 0 -10 91 -10 245 l0 245 510 0 510 0 0 420 0
420 405 0 405 0 0 -509z m-1557 -178 c-7 -2 -19 -2 -25 0 -7 3 -2 5 12 5 14 0
19 -2 13 -5z"/>
</g>
</svg>
